<mxfile host="app.diagrams.net" modified="2024-12-09T14:40:06.890Z" agent="Mozilla/5.0 (Windows NT 10.0; Win64; x64) AppleWebKit/537.36 (KHTML, like Gecko) Chrome/131.0.0.0 Safari/537.36" version="21.7.2" etag="hzjKEtuvavj7zjs7U7pe" type="github">
  <diagram name="Page-1" id="Aiz-M6s3_UVvFUl1or-j">
    <mxGraphModel>
      <root>
        <mxCell id="0" />
        <mxCell id="1" parent="0" />
        <mxCell id="2" value="A" style="ellipse;aspect=fixed;strokeWidth=2;whiteSpace=wrap;" vertex="1" parent="1">
          <mxGeometry width="26" height="26" as="geometry" />
        </mxCell>
        <mxCell id="3" value="B" style="ellipse;aspect=fixed;strokeWidth=2;whiteSpace=wrap;" vertex="1" parent="1">
          <mxGeometry x="76" y="1" width="24" height="24" as="geometry" />
        </mxCell>
        <mxCell id="4" value="C" style="ellipse;aspect=fixed;strokeWidth=2;whiteSpace=wrap;" vertex="1" parent="1">
          <mxGeometry x="150" y="1" width="25" height="25" as="geometry" />
        </mxCell>
        <mxCell id="5" value="D" style="ellipse;aspect=fixed;strokeWidth=2;whiteSpace=wrap;" vertex="1" parent="1">
          <mxGeometry x="225" width="25" height="25" as="geometry" />
        </mxCell>
        <mxCell id="6" value="E" style="ellipse;aspect=fixed;strokeWidth=2;whiteSpace=wrap;" vertex="1" parent="1">
          <mxGeometry x="39" y="77" width="24" height="24" as="geometry" />
        </mxCell>
        <mxCell id="7" value="F" style="ellipse;aspect=fixed;strokeWidth=2;whiteSpace=wrap;" vertex="1" parent="1">
          <mxGeometry x="188" y="77" width="24" height="24" as="geometry" />
        </mxCell>
        <mxCell id="8" value="G" style="ellipse;aspect=fixed;strokeWidth=2;whiteSpace=wrap;" vertex="1" parent="1">
          <mxGeometry x="262" y="76" width="26" height="26" as="geometry" />
        </mxCell>
        <mxCell id="9" value="H" style="ellipse;aspect=fixed;strokeWidth=2;whiteSpace=wrap;" vertex="1" parent="1">
          <mxGeometry x="338" y="76" width="25" height="25" as="geometry" />
        </mxCell>
        <mxCell id="10" value="I" style="ellipse;aspect=fixed;strokeWidth=2;whiteSpace=wrap;" vertex="1" parent="1">
          <mxGeometry x="116" y="155" width="19" height="19" as="geometry" />
        </mxCell>
        <mxCell id="11" value="J" style="ellipse;aspect=fixed;strokeWidth=2;whiteSpace=wrap;" vertex="1" parent="1">
          <mxGeometry x="300" y="2" width="23" height="23" as="geometry" />
        </mxCell>
        <mxCell id="12" value="K" style="ellipse;aspect=fixed;strokeWidth=2;whiteSpace=wrap;" vertex="1" parent="1">
          <mxGeometry x="300" y="152" width="25" height="25" as="geometry" />
        </mxCell>
        <mxCell id="13" value="L" style="ellipse;aspect=fixed;strokeWidth=2;whiteSpace=wrap;" vertex="1" parent="1">
          <mxGeometry x="189" y="227" width="23" height="23" as="geometry" />
        </mxCell>
        <mxCell id="14" value="" style="curved=1;startArrow=none;endArrow=block;exitX=0.5021367439856896;exitY=1.0042734879713793;entryX=-0.001771331791489139;entryY=0.009681185086568197;" edge="1" parent="1" source="2" target="6">
          <mxGeometry relative="1" as="geometry">
            <Array as="points">
              <mxPoint x="13" y="51" />
            </Array>
          </mxGeometry>
        </mxCell>
        <mxCell id="15" value="" style="curved=1;startArrow=none;endArrow=block;exitX=0.5100308259328207;exitY=1.0077160199483235;entryX=0.9724502970421401;entryY=0.009681185086568197;" edge="1" parent="1" source="3" target="6">
          <mxGeometry relative="1" as="geometry">
            <Array as="points">
              <mxPoint x="88" y="51" />
            </Array>
          </mxGeometry>
        </mxCell>
        <mxCell id="16" value="" style="curved=1;startArrow=none;endArrow=block;exitX=0.5063656616210938;exitY=0.9737731170654297;entryX=0.005026449839261223;entryY=-0.004484971364339192;" edge="1" parent="1" source="4" target="7">
          <mxGeometry relative="1" as="geometry">
            <Array as="points">
              <mxPoint x="163" y="51" />
            </Array>
          </mxGeometry>
        </mxCell>
        <mxCell id="17" value="" style="curved=1;startArrow=none;endArrow=block;exitX=0.5016202545166015;exitY=1.0259259033203125;entryX=1.0032922128041715;entryY=-0.004484971364339192;" edge="1" parent="1" source="5" target="7">
          <mxGeometry relative="1" as="geometry">
            <Array as="points">
              <mxPoint x="238" y="51" />
            </Array>
          </mxGeometry>
        </mxCell>
        <mxCell id="18" value="" style="curved=1;startArrow=none;endArrow=block;exitX=0.4853394826253255;exitY=0.9921513001124064;entryX=-0.022630440561394943;entryY=0.2435040874584765;" edge="1" parent="1" source="6" target="10">
          <mxGeometry relative="1" as="geometry">
            <Array as="points">
              <mxPoint x="51" y="127" />
            </Array>
          </mxGeometry>
        </mxCell>
        <mxCell id="19" value="" style="curved=1;startArrow=none;endArrow=block;exitX=0.5041593313217163;exitY=1.0063174565633137;entryX=1.001370530379446;entryY=0.24402770884670208;" edge="1" parent="1" source="7" target="10">
          <mxGeometry relative="1" as="geometry">
            <Array as="points">
              <mxPoint x="200" y="127" />
            </Array>
          </mxGeometry>
        </mxCell>
        <mxCell id="20" value="" style="curved=1;startArrow=none;endArrow=block;exitX=0.5053973931532639;exitY=0.9974180368276743;entryX=0.014872550964355469;entryY=0.0003974011836226055;" edge="1" parent="1" source="8" target="12">
          <mxGeometry relative="1" as="geometry">
            <Array as="points">
              <mxPoint x="275" y="127" />
            </Array>
          </mxGeometry>
        </mxCell>
        <mxCell id="21" value="" style="curved=1;startArrow=none;endArrow=block;exitX=0.511539192199707;exitY=1.030370330810547;entryX=1.022279930114746;entryY=0.0003974011836226055;" edge="1" parent="1" source="9" target="12">
          <mxGeometry relative="1" as="geometry">
            <Array as="points">
              <mxPoint x="351" y="127" />
            </Array>
          </mxGeometry>
        </mxCell>
        <mxCell id="22" value="" style="curved=1;startArrow=none;endArrow=block;exitX=0.48937004490902547;exitY=1.0133405484651263;entryX=-0.0010568784630816915;entryY=0.26552533775151727;" edge="1" parent="1" source="10" target="13">
          <mxGeometry relative="1" as="geometry">
            <Array as="points">
              <mxPoint x="125" y="202" />
            </Array>
          </mxGeometry>
        </mxCell>
        <mxCell id="23" value="" style="curved=1;startArrow=none;endArrow=block;exitX=0.5185762405395508;exitY=1.004722137451172;entryX=1.0134359028028406;entryY=0.3467924723622846;" edge="1" parent="1" source="12" target="13">
          <mxGeometry relative="1" as="geometry">
            <Array as="points">
              <mxPoint x="313" y="202" />
            </Array>
          </mxGeometry>
        </mxCell>
      </root>
    </mxGraphModel>
  </diagram>
</mxfile>
